<svg width="58" height="68" fill="none" xmlns="http://www.w3.org/2000/svg"><path fill-rule="evenodd" clip-rule="evenodd" d="M0 3h14v2h6V3h4V0h6v3h4v4h6V3h18v58H40v7h-6v-7h-4v-3h-6v3h-4v4h-6v-4H0V3z" fill="#fff"/><mask id="a" maskUnits="userSpaceOnUse" x="0" y="0" width="58" height="68"><path fill-rule="evenodd" clip-rule="evenodd" d="M0 3h14v2h6V3h4V0h6v3h4v4h6V3h18v58H40v7h-6v-7h-4v-3h-6v3h-4v4h-6v-4H0V3z" fill="#fff"/></mask><g mask="url(#a)"><path fill-rule="evenodd" clip-rule="evenodd" d="M-17-5h-2v85h2V-5zm5 0h-2v85h2V-5zm3 0h2v85h-2V-5zm7 0h-2v85h2V-5zm3 0h2v85H1V-5zm7 0H6v85h2V-5zm3 0h2v85h-2V-5zm7 0h-2v85h2V-5zm3 0h2v85h-2V-5zm7 0h-2v85h2V-5zm3 0h2v85h-2V-5zm7 0h-2v85h2V-5zm3 0h2v85h-2V-5zm7 0h-2v85h2V-5zm3 0h2v85h-2V-5zm7 0h-2v85h2V-5zm3 0h2v85h-2V-5zm7 0h-2v85h2V-5zm3 0h2v85h-2V-5zm7 0h-2v85h2V-5zm3 0h2v85h-2V-5zm7 0h-2v85h2V-5z" fill="#000"/></g></svg>