<svg width="88" height="73" fill="none" xmlns="http://www.w3.org/2000/svg"><path fill-rule="evenodd" clip-rule="evenodd" d="M65 1h4.976v4h4V3H88v11L67.398 34H78v-4h4.976v4h4.526v14H73.976v3H69v-3H53.976v2H49v-2h-6V36h4.722L67.2 17H48.19V3h4.553V0h4.977v3H65V1zM37 21h4.976v3h.62v45h-8.62v2H29v-2h-1.332V57.5h-3.583L17.019 69H9.976v4H5v-4H0l10.65-14.8c-3.186-1.7-7.465-5.7-7.465-13.3 0-8.61 6.014-15.905 20.815-16.806V23h4.976v1H37v-3zM19.109 42.1c0 2.4 2.587 4.4 5.872 4.4h2.687V37h-2.886c-3.583 0-5.673 2.7-5.673 5.1z" fill="#F4F4F4"/><mask id="a" maskUnits="userSpaceOnUse" x="0" y="0" width="88" height="73"><path fill-rule="evenodd" clip-rule="evenodd" d="M65 1h4.976v4h4V3H88v11L67.398 34H78v-4h4.976v4h4.526v14H73.976v3H69v-3H53.976v2H49v-2h-6V36h4.722L67.2 17H48.19V3h4.553V0h4.977v3H65V1zM37 21h4.976v3h.62v45h-8.62v2H29v-2h-1.332V57.5h-3.583L17.019 69H9.976v4H5v-4H0l10.65-14.8c-3.186-1.7-7.465-5.7-7.465-13.3 0-8.61 6.014-15.905 20.815-16.806V23h4.976v1H37v-3zM19.109 42.1c0 2.4 2.587 4.4 5.872 4.4h2.687V37h-2.886c-3.583 0-5.673 2.7-5.673 5.1z" fill="#fff"/></mask><g mask="url(#a)"><path fill-rule="evenodd" clip-rule="evenodd" d="M-8-7h-2v85h2V-7zm5 0h-2v85h2V-7zm3 0h2v85H0V-7zm7 0H5v85h2V-7zm3 0h2v85h-2V-7zm7 0h-2v85h2V-7zm3 0h2v85h-2V-7zm7 0h-2v85h2V-7zm3 0h2v85h-2V-7zm7 0h-2v85h2V-7zm3 0h2v85h-2V-7zm7 0h-2v85h2V-7zm3 0h2v85h-2V-7zm7 0h-2v85h2V-7zm3 0h2v85h-2V-7zm7 0h-2v85h2V-7zm3 0h2v85h-2V-7zm7 0h-2v85h2V-7zm3 0h2v85h-2V-7zm7 0h-2v85h2V-7zm3 0h2v85h-2V-7zm7 0h-2v85h2V-7z" fill="#000"/></g></svg>