<svg width="66" height="71" fill="none" xmlns="http://www.w3.org/2000/svg"><path fill-rule="evenodd" clip-rule="evenodd" d="M32.823 0h-5.027v3.95A26.183 26.183 0 0023 7.167V13h-5.027v-.153a26.01 26.01 0 00-4.252 14.293 26.02 26.02 0 002.962 12.095L.002 55.915l12.085 12.086 1.886-1.886V71H19v-9h-.912l4.885-4.885V58h5v-5h-.885l.885-.885V49H33v3.366a26.408 26.408 0 009.973.726V56H48v-4.016c10.451-3.421 18-13.25 18-24.844a26.01 26.01 0 00-4.14-14.12H64V7h-5.027v2.311c-4.77-5.11-11.568-8.306-19.112-8.306-2.438 0-4.799.334-7.038.958V0zm-7.037 27.14c0 7.773 6.301 14.073 14.075 14.073.718 0 1.423-.054 2.112-.157V42H47v-2.729c4.15-2.447 6.936-6.964 6.936-12.13 0-7.773-6.302-14.073-14.075-14.073-7.774 0-14.075 6.3-14.075 14.072z" fill="#F4F4F4"/><mask id="a" maskUnits="userSpaceOnUse" x="0" y="0" width="67" height="71"><path fill-rule="evenodd" clip-rule="evenodd" d="M32.823 0h-5.027v3.95A26.183 26.183 0 0023 7.167V13h-5.027v-.153a26.01 26.01 0 00-4.252 14.293 26.02 26.02 0 002.962 12.095L.002 55.915l12.085 12.086 1.886-1.886V71H19v-9h-.912l4.885-4.885V58h5v-5h-.885l.885-.885V49H33v3.366a26.408 26.408 0 009.973.726V56H48v-4.016c10.451-3.421 18-13.25 18-24.844a26.01 26.01 0 00-4.14-14.12H64V7h-5.027v2.311c-4.77-5.11-11.568-8.306-19.112-8.306-2.438 0-4.799.334-7.038.958V0zm-7.037 27.14c0 7.773 6.301 14.073 14.075 14.073.718 0 1.423-.054 2.112-.157V42H47v-2.729c4.15-2.447 6.936-6.964 6.936-12.13 0-7.773-6.302-14.073-14.075-14.073-7.774 0-14.075 6.3-14.075 14.072z" fill="#fff"/></mask><g mask="url(#a)"><path fill-rule="evenodd" clip-rule="evenodd" d="M79-2h2v76h-2V-2zm-5 0h2v76h-2V-2zm-3 0h-2v76h2V-2zm-7 0h2v76h-2V-2zm-3 0h-2v76h2V-2zm-7 0h2v76h-2V-2zm-3 0h-2v76h2V-2zm-7 0h2v76h-2V-2zm-3 0h-2v76h2V-2zm-7 0h2v76h-2V-2zm-3 0h-2v76h2V-2zm-7 0h2v76h-2V-2zm-3 0h-2v76h2V-2zm-7 0h2v76h-2V-2zm-3 0H9v76h2V-2zM4-2h2v76H4V-2zM1-2h-2v76h2V-2zm-7 0h2v76h-2V-2zm-3 0h-2v76h2V-2zm-7 0h2v76h-2V-2zm-3 0h-2v76h2V-2zm-7 0h2v76h-2V-2z" fill="#000"/></g></svg>