<svg width="82" height="75" fill="none" xmlns="http://www.w3.org/2000/svg"><path fill-rule="evenodd" clip-rule="evenodd" d="M46 0h5v3.569c12.896 2.15 22.757 13.387 22.757 26.884v.37h7.553L67.843 48.247l-13.47-17.426h7.554v-.369c0-8.505-6.92-15.423-15.424-15.423-2.87 0-5.553.793-7.857 2.163.042.375.067.756.067 1.142 0 4.794-3.277 8.823-7.712 9.97V32h-5v-3.655c-4.52-1.087-7.878-5.156-7.878-10.01 0-5.685 4.608-10.294 10.295-10.294.775 0 1.527.092 2.253.255A27.085 27.085 0 0146 3.203V0zm7.827 49.393A10.296 10.296 0 0044.658 55H46v6h-2.69A15.31 15.31 0 0136 62.992V60h-5v2.249c-6.192-2.006-10.682-7.828-10.682-14.678v-.37h7.552L14.402 29.778.934 47.2h7.553v.37c0 15.029 12.226 27.255 27.255 27.255l.258-.001V73h5v1.315a27.147 27.147 0 0010-4.182V73h5v-3.246c4.642-.998 8.122-5.126 8.122-10.066 0-5.685-4.61-10.295-10.295-10.295z" fill="#F4F4F4"/><mask id="a" maskUnits="userSpaceOnUse" x="0" y="0" width="82" height="75"><path fill-rule="evenodd" clip-rule="evenodd" d="M46 0h5v3.569c12.896 2.15 22.757 13.387 22.757 26.884v.37h7.553L67.843 48.247l-13.47-17.426h7.554v-.369c0-8.505-6.92-15.423-15.424-15.423-2.87 0-5.553.793-7.857 2.163.042.375.067.756.067 1.142 0 4.794-3.277 8.823-7.712 9.97V32h-5v-3.655c-4.52-1.087-7.878-5.156-7.878-10.01 0-5.685 4.608-10.294 10.295-10.294.775 0 1.527.092 2.253.255A27.085 27.085 0 0146 3.203V0zm7.827 49.393A10.296 10.296 0 0044.658 55H46v6h-2.69A15.31 15.31 0 0136 62.992V60h-5v2.249c-6.192-2.006-10.682-7.828-10.682-14.678v-.37h7.552L14.402 29.778.934 47.2h7.553v.37c0 15.029 12.226 27.255 27.255 27.255l.258-.001V73h5v1.315a27.147 27.147 0 0010-4.182V73h5v-3.246c4.642-.998 8.122-5.126 8.122-10.066 0-5.685-4.61-10.295-10.295-10.295z" fill="#fff"/></mask><g mask="url(#a)"><path fill-rule="evenodd" clip-rule="evenodd" d="M-21-3h-2v85h2V-3zm5 0h-2v85h2V-3zm3 0h2v85h-2V-3zm7 0h-2v85h2V-3zm3 0h2v85h-2V-3zm7 0H2v85h2V-3zm3 0h2v85H7V-3zm7 0h-2v85h2V-3zm3 0h2v85h-2V-3zm7 0h-2v85h2V-3zm3 0h2v85h-2V-3zm7 0h-2v85h2V-3zm3 0h2v85h-2V-3zm7 0h-2v85h2V-3zm3 0h2v85h-2V-3zm7 0h-2v85h2V-3zm3 0h2v85h-2V-3zm7 0h-2v85h2V-3zm3 0h2v85h-2V-3zm7 0h-2v85h2V-3zm3 0h2v85h-2V-3zm7 0h-2v85h2V-3z" fill="#000"/></g></svg>