<svg width="93" height="74" fill="none" xmlns="http://www.w3.org/2000/svg"><path fill-rule="evenodd" clip-rule="evenodd" d="M68 0h-4v3H48v45h7v2h4v-2h21v-2h4v2h9V1h-4v2H78v2h-4V3h-6V0zM33.656 39l-1.178-2H29v-5.906L26 26 12.456 49H9v4h1.1L0 70.15h14V73h4v-2.85h26V74h4v-3.85h4L37 44.68V39h-3.344z" fill="#F4F4F4"/><mask id="a" maskUnits="userSpaceOnUse" x="0" y="0" width="93" height="74"><path fill-rule="evenodd" clip-rule="evenodd" d="M68 0h-4v3H48v45h7v2h4v-2h21v-2h4v2h9V1h-4v2H78v2h-4V3h-6V0zM33.656 39l-1.178-2H29v-5.906L26 26 12.456 49H9v4h1.1L0 70.15h14V73h4v-2.85h26V74h4v-3.85h4L37 44.68V39h-3.344z" fill="#fff"/></mask><g mask="url(#a)"><path fill-rule="evenodd" clip-rule="evenodd" d="M2-3H0v85h2V-3zm5 0H5v85h2V-3zm3 0h2v85h-2V-3zm7 0h-2v85h2V-3zm3 0h2v85h-2V-3zm7 0h-2v85h2V-3zm3 0h2v85h-2V-3zm7 0h-2v85h2V-3zm3 0h2v85h-2V-3zm7 0h-2v85h2V-3zm3 0h2v85h-2V-3zm7 0h-2v85h2V-3zm3 0h2v85h-2V-3zm7 0h-2v85h2V-3zm3 0h2v85h-2V-3zm7 0h-2v85h2V-3zm3 0h2v85h-2V-3zm7 0h-2v85h2V-3zm3 0h2v85h-2V-3zm7 0h-2v85h2V-3zm3 0h2v85h-2V-3zm7 0h-2v85h2V-3z" fill="#000"/></g></svg>