<svg width="65" height="68" fill="none" xmlns="http://www.w3.org/2000/svg"><path fill-rule="evenodd" clip-rule="evenodd" d="M56 24.624a6.06 6.06 0 00-3.127 4.529 6.051 6.051 0 00-5.994-5.251 6.052 6.052 0 00-5.895 4.692 6.05 6.05 0 00-11.947 1.36v-23.9a6.052 6.052 0 10-12.105 0v47.789H10V51H6v2.842a6.054 6.054 0 000 12.106V64h4v1.948h22V64h4v1.948h9V68h4v-2.052h3.932v-.006c1.06-.01 2.089-.157 3.068-.423V66h4v-2.419a12.08 12.08 0 004.92-9.74V29.956A6.054 6.054 0 0060 24.008V23h-4v1.624z" fill="#F4F4F4"/><mask id="a" maskUnits="userSpaceOnUse" x="0" y="0" width="65" height="68"><path fill-rule="evenodd" clip-rule="evenodd" d="M56 24.624a6.06 6.06 0 00-3.127 4.529 6.051 6.051 0 00-5.994-5.251 6.052 6.052 0 00-5.895 4.692 6.05 6.05 0 00-11.947 1.36v-23.9a6.052 6.052 0 10-12.105 0v47.789H10V51H6v2.842a6.054 6.054 0 000 12.106V64h4v1.948h22V64h4v1.948h9V68h4v-2.052h3.932v-.006c1.06-.01 2.089-.157 3.068-.423V66h4v-2.419a12.08 12.08 0 004.92-9.74V29.956A6.054 6.054 0 0060 24.008V23h-4v1.624z" fill="#fff"/></mask><g mask="url(#a)"><path fill-rule="evenodd" clip-rule="evenodd" d="M-11 0h-2v85h2V0zm5 0h-2v85h2V0zm3 0h2v85h-2V0zm7 0H2v85h2V0zm3 0h2v85H7V0zm7 0h-2v85h2V0zm3 0h2v85h-2V0zm7 0h-2v85h2V0zm3 0h2v85h-2V0zm7 0h-2v85h2V0zm3 0h2v85h-2V0zm7 0h-2v85h2V0zm3 0h2v85h-2V0zm7 0h-2v85h2V0zm3 0h2v85h-2V0zm7 0h-2v85h2V0zm3 0h2v85h-2V0zm7 0h-2v85h2V0zm3 0h2v85h-2V0zm7 0h-2v85h2V0zm3 0h2v85h-2V0zm7 0h-2v85h2V0z" fill="#000"/></g></svg>