<svg width="90" height="63" fill="none" xmlns="http://www.w3.org/2000/svg"><path fill-rule="evenodd" clip-rule="evenodd" d="M57 0h4v4.936c16.744 7.954 28.615 25.189 28.615 25.189S70.195 58.319 46 59.228V63h-4v-3.874c-5.685-.498-11.084-2.46-16-5.148V52h-3.34C9.126 43.374 0 30.125 0 30.125s6.643-9.645 17-17.834V7h4v2.345c6.154-4.198 13.315-7.548 21-8.221V3h4V1.022c3.804.143 7.49.96 11 2.236V0zm9 37.182c4.155-3.701 6.663-7.057 6.663-7.057S62.24 16.18 48.695 13.789C52.97 15.465 56 19.629 56 24.5 56 30.851 50.851 36 44.5 36S33 30.851 33 24.5c0-4.654 2.765-8.663 6.742-10.473-12.966 2.956-22.79 16.098-22.79 16.098s12.471 16.683 27.856 16.683c6.487 0 12.457-2.967 17.192-6.398V37h4v.182z" fill="#F4F4F4"/><mask id="a" maskUnits="userSpaceOnUse" x="0" y="0" width="90" height="63"><path fill-rule="evenodd" clip-rule="evenodd" d="M57 0h4v4.936c16.744 7.954 28.615 25.189 28.615 25.189S70.195 58.319 46 59.228V63h-4v-3.874c-5.685-.498-11.084-2.46-16-5.148V52h-3.34C9.126 43.374 0 30.125 0 30.125s6.643-9.645 17-17.834V7h4v2.345c6.154-4.198 13.315-7.548 21-8.221V3h4V1.022c3.804.143 7.49.96 11 2.236V0zm9 37.182c4.155-3.701 6.663-7.057 6.663-7.057S62.24 16.18 48.695 13.789C52.97 15.465 56 19.629 56 24.5 56 30.851 50.851 36 44.5 36S33 30.851 33 24.5c0-4.654 2.765-8.663 6.742-10.473-12.966 2.956-22.79 16.098-22.79 16.098s12.471 16.683 27.856 16.683c6.487 0 12.457-2.967 17.192-6.398V37h4v.182z" fill="#fff"/></mask><g mask="url(#a)"><path fill-rule="evenodd" clip-rule="evenodd" d="M0-6h-2v85h2V-6zm5 0H3v85h2V-6zm3 0h2v85H8V-6zm7 0h-2v85h2V-6zm3 0h2v85h-2V-6zm7 0h-2v85h2V-6zm3 0h2v85h-2V-6zm7 0h-2v85h2V-6zm3 0h2v85h-2V-6zm7 0h-2v85h2V-6zm3 0h2v85h-2V-6zm7 0h-2v85h2V-6zm3 0h2v85h-2V-6zm7 0h-2v85h2V-6zm3 0h2v85h-2V-6zm7 0h-2v85h2V-6zm3 0h2v85h-2V-6zm7 0h-2v85h2V-6zm3 0h2v85h-2V-6zm7 0h-2v85h2V-6zm3 0h2v85h-2V-6zm7 0h-2v85h2V-6z" fill="#000"/></g></svg>