<svg width="66" height="75" fill="none" xmlns="http://www.w3.org/2000/svg"><path fill-rule="evenodd" clip-rule="evenodd" d="M21 3h-4.5v29H21v4h4v-4h4.5V3H25v2h-4V3zm29-3h-4v3h-9.5v29h13V8h.5V0zm3 40c0 6.53-3.145 12.338-8 15.99V60h-4v-1.67A19.887 19.887 0 0133 60c-2.843 0-5.549-.596-8-1.67V59h-4v-3.01c-4.855-3.652-8-9.46-8-15.99H5v-3H1v3H0c0 9.752 4.252 18.53 11 24.576V70h4v-2.353A32.807 32.807 0 0033 73c2.758 0 5.438-.34 8-.98V75h4v-4.258C57.28 65.932 66 53.965 66 40H53z" fill="#F4F4F4"/><mask id="a" maskUnits="userSpaceOnUse" x="0" y="0" width="66" height="75"><path fill-rule="evenodd" clip-rule="evenodd" d="M21 3h-4.5v29H21v4h4v-4h4.5V3H25v2h-4V3zm29-3h-4v3h-9.5v29h13V8h.5V0zm3 40c0 6.53-3.145 12.338-8 15.99V60h-4v-1.67A19.887 19.887 0 0133 60c-2.843 0-5.549-.596-8-1.67V59h-4v-3.01c-4.855-3.652-8-9.46-8-15.99H5v-3H1v3H0c0 9.752 4.252 18.53 11 24.576V70h4v-2.353A32.807 32.807 0 0033 73c2.758 0 5.438-.34 8-.98V75h4v-4.258C57.28 65.932 66 53.965 66 40H53z" fill="#fff"/></mask><g mask="url(#a)"><path fill-rule="evenodd" clip-rule="evenodd" d="M-21-5h-2v85h2V-5zm5 0h-2v85h2V-5zm3 0h2v85h-2V-5zm7 0h-2v85h2V-5zm3 0h2v85h-2V-5zm7 0H2v85h2V-5zm3 0h2v85H7V-5zm7 0h-2v85h2V-5zm3 0h2v85h-2V-5zm7 0h-2v85h2V-5zm3 0h2v85h-2V-5zm7 0h-2v85h2V-5zm3 0h2v85h-2V-5zm7 0h-2v85h2V-5zm3 0h2v85h-2V-5zm7 0h-2v85h2V-5zm3 0h2v85h-2V-5zm7 0h-2v85h2V-5zm3 0h2v85h-2V-5zm7 0h-2v85h2V-5zm3 0h2v85h-2V-5zm7 0h-2v85h2V-5z" fill="#000"/></g></svg>