<svg width="76" height="69" fill="none" xmlns="http://www.w3.org/2000/svg"><path fill-rule="evenodd" clip-rule="evenodd" d="M73 0H5v16H2v3h3v37H0v3h5v10h68V58h-2v-3h2V39h3v-3h-3V13h-3v-3h3V0z" fill="#F4F4F4"/><mask id="a" maskUnits="userSpaceOnUse" x="0" y="0" width="76" height="69"><path fill-rule="evenodd" clip-rule="evenodd" d="M73 0H5v16H2v3h3v37H0v3h5v10h68V58h-2v-3h2V39h3v-3h-3V13h-3v-3h3V0z" fill="#fff"/></mask><g mask="url(#a)"><path fill-rule="evenodd" clip-rule="evenodd" d="M83-17v-2H-2v2h85zm0 5v-2H-2v2h85zm0 3v2H-2v-2h85zm0 7v-2H-2v2h85zm0 3v2H-2V1h85zm0 7V6H-2v2h85zm0 3v2H-2v-2h85zm0 7v-2H-2v2h85zm0 3v2H-2v-2h85zm0 7v-2H-2v2h85zm0 3v2H-2v-2h85zm0 7v-2H-2v2h85zm0 3v2H-2v-2h85zm0 7v-2H-2v2h85zm0 3v2H-2v-2h85zm0 7v-2H-2v2h85zm0 3v2H-2v-2h85zm0 7v-2H-2v2h85zm0 3v2H-2v-2h85zm0 7v-2H-2v2h85zm0 3v2H-2v-2h85zm0 7v-2H-2v2h85z" fill="#000"/></g><path fill-rule="evenodd" clip-rule="evenodd" d="M39 62c15.464 0 28-12.536 28-28S54.464 6 39 6 11 18.536 11 34s12.536 28 28 28z" fill="#F4F4F4"/><path fill-rule="evenodd" clip-rule="evenodd" d="M41 15h-4v3.124C29.107 19.108 23 25.84 23 34s6.107 14.892 14 15.876V47h4v4h4v-2.163C50.864 46.463 55 40.715 55 34c0-8.16-6.107-14.892-14-15.876V15z" fill="#F4F4F4"/><mask id="b" maskUnits="userSpaceOnUse" x="23" y="15" width="32" height="36"><path fill-rule="evenodd" clip-rule="evenodd" d="M41 15h-4v3.124C29.107 19.108 23 25.84 23 34s6.107 14.892 14 15.876V47h4v4h4v-2.163C50.864 46.463 55 40.715 55 34c0-8.16-6.107-14.892-14-15.876V15z" fill="#fff"/></mask><g mask="url(#b)"><path fill-rule="evenodd" clip-rule="evenodd" d="M-10-8h-2v85h2V-8zm5 0h-2v85h2V-8zm3 0h2v85h-2V-8zm7 0H3v85h2V-8zm3 0h2v85H8V-8zm7 0h-2v85h2V-8zm3 0h2v85h-2V-8zm7 0h-2v85h2V-8zm3 0h2v85h-2V-8zm7 0h-2v85h2V-8zm3 0h2v85h-2V-8zm7 0h-2v85h2V-8zm3 0h2v85h-2V-8zm7 0h-2v85h2V-8zm3 0h2v85h-2V-8zm7 0h-2v85h2V-8zm3 0h2v85h-2V-8zm7 0h-2v85h2V-8zm3 0h2v85h-2V-8zm7 0h-2v85h2V-8zm3 0h2v85h-2V-8zm7 0h-2v85h2V-8z" fill="#000"/></g></svg>