<svg width="76" height="67" xmlns="http://www.w3.org/2000/svg"><path d="M23 28h2v11h-2zM5 0h68v2H5zm0 65h68v2H5zM5 5h28v2H5zm0 5h17v2H5zm-3 5h15v2H2zm3 5h9v2H5zm0 5h7v2H5zm0 5h6v2H5zm0 5h6v2H5zm0 5h7v2H5zm0 5h9v2H5zm0 5h13v2H5zm-5 5h23v2H0zm54 0h17v2H54zm6-5h13v2H60zm4-5h9v2h-9zm2-5h7v2h-7zm1-5h9v2h-9zm0-5h6v2h-6zm-1-5h7v2h-7zm-2-5h9v2h-9zm-3-5h12v2H61zm-5-5h14v2H56zM5 60h30v2H5zm38 0h30v2H43zM42 5h31v2H42zM28 21h2v24h-2zm5-3h2v30h-2zm5-4h2v32h-2zm5 4h2v32h-2zm5 3h2v24h-2zm5 7h2v10h-2z" fill-rule="evenodd"/></svg>