<svg width="46" height="39" fill="none" xmlns="http://www.w3.org/2000/svg"><path fill-rule="evenodd" clip-rule="evenodd" d="M13.238 21.8L35.647 7.662c1.118-.678 2.144-.313 1.302.434L17.762 25.408l-.747 7.968L13.238 21.8zM42.094.75L2.233 16.124c-2.721 1.092-2.705 2.609-.496 3.286l9.941 3.102 3.804 11.663c.463 1.276.235 1.783 1.575 1.783 1.034 0 1.493-.472 2.07-1.035.366-.358 2.54-2.473 4.97-4.835l10.34 7.64c1.904 1.05 3.278.507 3.752-1.767l6.788-31.988c.695-2.786-1.063-4.05-2.883-3.223z" fill="#000"/></svg>