<svg width="80" height="89" fill="none" xmlns="http://www.w3.org/2000/svg"><path fill-rule="evenodd" clip-rule="evenodd" d="M4.746 0H.102C.046 0 0 .139 0 .31v87.462c0 .17.046.309.102.309h4.644c.057 0 .102-.138.102-.31V.31c0-.17-.045-.31-.102-.31zm15.309 15.354H15.5c-.082 0-.147.122-.147.275v59.247c0 .153.065.275.147.275h4.554c.08 0 .147-.122.147-.275V15.63c0-.153-.066-.275-.147-.275zm10.14 8.08h4.257a.3.3 0 01.296.305v43.835a.3.3 0 01-.296.305h-4.258a.3.3 0 01-.295-.305V23.74a.3.3 0 01.295-.305zM80 87.772V.31c0-.17-.046-.31-.102-.31h-4.645c-.056 0-.102.139-.102.31v87.462c0 .17.046.309.102.309h4.645c.056 0 .102-.138.102-.309zM64.647 15.63v59.247c0 .153-.066.275-.148.275h-4.554c-.08 0-.147-.122-.147-.275V15.63c0-.153.066-.275.147-.275H64.5c.082 0 .148.122.148.275zM50.1 67.574V23.74a.3.3 0 00-.294-.305h-4.26a.3.3 0 00-.294.305v43.835a.3.3 0 00.295.305h4.259a.3.3 0 00.294-.305z" fill="url(#paint0_linear)"/><defs><linearGradient id="paint0_linear" x1="30.058" y1="119.294" x2="108.202" y2="60.507" gradientUnits="userSpaceOnUse"><stop stop-color="#F39492"/><stop offset="1" stop-color="#616E8C"/></linearGradient></defs></svg>