<svg width="177" height="55" fill="none" xmlns="http://www.w3.org/2000/svg"><g filter="url(#filter0_d)" fill-rule="evenodd" clip-rule="evenodd" fill="#fff"><path d="M61.08 36.349h4.807V12.617H61.08v23.732zm18.024-19.526h5.624c2.125 0 3.4 1.074 3.4 2.854 0 1.846-1.275 2.853-3.4 2.853h-5.624v-5.707zm0 19.526v-9.613h4.003l6.749 9.613h5.67l-7.21-10.137c3.038-.95 4.84-3.424 4.84-6.577 0-2.068-.734-3.764-2.169-5.052-1.435-1.322-3.404-1.966-5.874-1.966H74.297V36.35h4.806zm40.254 0v-4.506h-12.617v-6.009h9.914V21.63h-9.914v-4.806h12.317v-4.206h-17.123V36.35h17.423zm23.732 0v-4.506h-11.716V12.617h-4.807v23.732h16.523zm16.913-17.895l3.386 8.282h-6.805l3.419-8.282zm-7.054 17.895l2.243-5.407h9.622l2.243 5.407h5.247l-9.974-24.032h-4.588l-9.973 24.032h5.18z"/></g><defs><filter id="filter0_d" x="-3" y="0" width="179.304" height="54.863" filterUnits="userSpaceOnUse" color-interpolation-filters="sRGB"><feFlood flood-opacity="0" result="BackgroundImageFix"/><feColorMatrix in="SourceAlpha" values="0 0 0 0 0 0 0 0 0 0 0 0 0 0 0 0 0 0 127 0"/><feOffset dy="4"/><feGaussianBlur stdDeviation="2"/><feColorMatrix values="0 0 0 0 0 0 0 0 0 0 0 0 0 0 0 0 0 0 0.25 0"/><feBlend in2="BackgroundImageFix" result="effect1_dropShadow"/><feBlend in="SourceGraphic" in2="effect1_dropShadow" result="shape"/></filter></defs></svg>