<svg width="177" height="55" fill="none" xmlns="http://www.w3.org/2000/svg"><g filter="url(#filter0_d)" fill-rule="evenodd" clip-rule="evenodd" fill="#fff"><path d="M1.164 0h7.482c.09 0 .165.074.165.165v46.533a.165.165 0 01-.165.165H1.164A.165.165 0 011 46.698V.165C1 .074 1.074 0 1.164 0zm11.919 8.104h4.156c.074 0 .135.066.135.148v31.683c0 .082-.06.147-.135.147h-4.156c-.075 0-.135-.065-.135-.147V8.252c0-.082.06-.148.135-.148zm7.007 4.513h2.374c.091 0 .165.073.165.162v23.407c0 .09-.074.163-.165.163H20.09a.164.164 0 01-.165-.163V12.78c0-.09.074-.162.165-.162zM47.901.165v46.534c0 .09-.074.164-.164.164h-7.482a.164.164 0 01-.164-.164V.165c0-.091.073-.165.164-.165h7.482c.09 0 .164.074.164.165zM35.695 8.252v31.685c0 .082-.06.147-.135.147h-4.156c-.074 0-.134-.065-.134-.147V8.252c0-.082.06-.148.134-.148h4.156c.075 0 .135.066.135.148zm-7.058 4.528v23.406c0 .09-.074.163-.164.163h-2.375a.163.163 0 01-.165-.163V12.78c0-.09.074-.162.165-.162h2.375c.09 0 .164.073.164.162z"/></g><defs><filter id="filter0_d" x="-3" y="0" width="179.304" height="54.863" filterUnits="userSpaceOnUse" color-interpolation-filters="sRGB"><feFlood flood-opacity="0" result="BackgroundImageFix"/><feColorMatrix in="SourceAlpha" values="0 0 0 0 0 0 0 0 0 0 0 0 0 0 0 0 0 0 127 0"/><feOffset dy="4"/><feGaussianBlur stdDeviation="2"/><feColorMatrix values="0 0 0 0 0 0 0 0 0 0 0 0 0 0 0 0 0 0 0.25 0"/><feBlend in2="BackgroundImageFix" result="effect1_dropShadow"/><feBlend in="SourceGraphic" in2="effect1_dropShadow" result="shape"/></filter></defs></svg>