<svg width="150" height="41" fill="none" xmlns="http://www.w3.org/2000/svg"><path fill-rule="evenodd" clip-rule="evenodd" d="M.144 0h6.524c.08 0 .144.064.144.144v40.593c0 .08-.065.143-.144.143H.144A.143.143 0 010 40.737V.144C0 .064.064 0 .144 0zm10.393 7.07h3.625c.064 0 .117.057.117.128v27.639c0 .071-.053.128-.117.128h-3.625c-.065 0-.117-.057-.117-.128V7.198c0-.07.052-.128.117-.128zm6.111 3.936h2.072c.079 0 .143.064.143.142v20.419a.143.143 0 01-.143.142h-2.072a.143.143 0 01-.143-.142V11.148c0-.078.064-.142.143-.142zM40.902.144v40.593c0 .08-.064.143-.143.143h-6.525a.143.143 0 01-.143-.143V.144c0-.08.064-.144.143-.144h6.525c.079 0 .143.064.143.144zM30.257 7.198v27.64c0 .072-.053.13-.117.13h-3.625c-.065 0-.117-.058-.117-.13V7.199c0-.07.052-.128.117-.128h3.625c.064 0 .117.057.117.128zm-6.155 3.95v20.418a.143.143 0 01-.143.142h-2.071a.143.143 0 01-.144-.142V11.148c0-.079.064-.142.144-.142h2.07c.08 0 .144.063.144.142zm28.293 20.561h4.192V11.006h-4.192V31.71zm15.719-17.034h4.905c1.853 0 2.965.937 2.965 2.49 0 1.61-1.112 2.489-2.965 2.489h-4.905v-4.979zm0 17.033v-8.385h3.491l5.885 8.385h4.946l-6.288-8.842c2.65-.828 4.221-2.987 4.221-5.738 0-1.804-.64-3.283-1.892-4.406-1.252-1.154-2.969-1.716-5.123-1.716h-9.431v20.702h4.191zm35.105 0v-3.93H92.216v-5.242h8.645v-3.668h-8.645v-4.193h10.741v-3.67H88.024v20.703h15.195zm20.697 0v-3.93h-10.217V11.005h-4.192v20.702h14.409zm14.75-15.61l2.952 7.225h-5.934l2.982-7.225zm-6.152 15.61l1.956-4.717h8.391l1.956 4.717h4.576l-8.698-20.964h-4.001l-8.698 20.964h4.518z" fill="#fff"/></svg>